<svg width="26" height="31" viewBox="0 0 26 31" fill="none" xmlns="http://www.w3.org/2000/svg">
<path d="M7.55108 7.62536L15.1023 15.0737L7.65395 22.625L0.205566 30.1763L6.29917 30.1345L12.3928 30.0927L19.0963 23.2965C22.8205 19.5209 25.8891 15.8435 25.8833 14.9998C25.8775 14.1561 22.7588 10.5211 18.9832 6.79694L12.187 0.093388L6.09342 0.135181L-0.000183989 0.176974L7.55108 7.62536ZM18.804 8.01694L25.1334 15.0049L18.9005 22.0791L12.6676 29.1533L7.41772 29.1893L2.16784 29.2253L9.05695 22.1466L15.9461 15.068L8.96051 8.08445L1.97495 1.10095L7.22483 1.06494L12.4747 1.02894L18.804 8.01694Z" fill="black"/>
</svg>
