<svg width="27" height="31" viewBox="0 0 27 31" fill="none" xmlns="http://www.w3.org/2000/svg">
<path d="M18.8287 22.6775L11.1466 15.3641L18.46 7.68207L25.7734 0L19.6815 0.14977L13.5896 0.29954L7.00756 7.2134C3.35085 11.0544 0.347901 14.7856 0.368638 15.6291C0.389376 16.4726 3.57205 20.0517 7.41309 23.7084L14.3269 30.2905L20.4189 30.1407L26.5108 29.9909L18.8287 22.6775ZM7.57058 22.4854L1.11841 15.6107L7.22495 8.42717L13.3315 1.24367L18.5799 1.11464L23.8283 0.985604L17.0657 8.18524L10.3031 15.3849L17.4114 22.2435L24.5196 29.1021L19.2712 29.2311L14.0227 29.3602L7.57058 22.4854Z" fill="black"/>
</svg>
