<svg width="102" height="107" viewBox="0 0 102 107" fill="none" xmlns="http://www.w3.org/2000/svg">
<path d="M52.4931 107C52.462 106.726 52.4465 106.255 52.4465 105.587C52.4465 104.766 52.5865 103.915 52.8664 103.034C53.3019 101.666 53.9552 100.116 54.8262 98.3835C55.635 96.803 56.5526 95.0858 57.5791 93.2318C58.5746 91.3778 59.0723 89.539 59.0723 87.7154C59.0723 85.7398 58.4657 84.1745 57.2525 83.0196C56.4437 82.2294 55.4172 81.8039 54.1729 81.7431V81.2416C56.3193 80.968 58.1546 80.2234 59.6789 79.0077C61.2653 77.7311 62.323 76.0139 62.8518 73.856C63.4739 71.4245 63.785 67.8685 63.785 63.1879C63.785 61.5466 63.7539 59.4495 63.6917 56.8965C63.5672 52.5806 63.505 49.5109 63.505 47.6873C63.505 42.6116 63.7072 32.8249 64.1116 18.3272H73.1171C76.1656 18.3272 78.5919 19.1478 80.3962 20.7891C82.7914 22.9166 83.989 25.5457 83.989 28.6762C83.989 30.8037 83.4446 32.6121 82.3559 34.1014C80.9561 36.0162 78.7475 37.3991 75.7301 38.2501C72.9927 39.0403 69.9597 39.5266 66.6313 39.709V42.9003C69.6176 41.563 73.0549 40.8943 76.9433 40.8943C80.8006 40.8943 84.0046 41.4566 86.5554 42.5812C90.0704 44.1312 92.5124 45.9396 93.8811 48.0064C95.9963 51.1977 97.0695 54.6777 97.1006 58.4465C97.1006 61.1515 96.5252 63.7958 95.3742 66.3792C94.2232 69.0234 92.1546 71.151 89.1684 72.7618C86.2754 74.3119 82.9158 75.0869 79.0897 75.0869C77.2543 75.0869 75.3568 74.8438 73.3971 74.3575C70.9396 73.7496 69.011 73.0809 67.6112 72.3515L66.678 72.625L66.0247 76.5914C72.215 76.5914 76.6167 76.5458 79.2296 76.4546C85.3577 76.2419 90.3349 75.0717 94.161 72.9442C97.3651 71.151 99.5892 68.7803 100.833 65.8321H101.3C99.5581 75.6796 95.1409 84.2353 88.0485 91.4994C78.312 101.468 66.4602 106.635 52.4931 107ZM49.5069 107C35.5087 106.605 23.6569 101.438 13.9515 91.4994C6.89021 84.2657 2.47301 75.71 0.699909 65.8321H1.16651C2.4108 68.7803 4.63495 71.151 7.83898 72.9442C11.6651 75.0717 16.6423 76.2419 22.7704 76.4546C25.3833 76.5458 29.785 76.5914 35.9753 76.5914L35.3221 72.625L34.3888 72.3515C32.989 73.0809 31.0604 73.7496 28.6029 74.3575C26.6432 74.8438 24.7457 75.0869 22.9103 75.0869C19.0842 75.0869 15.7246 74.3119 12.8317 72.7618C9.84538 71.151 7.77676 69.0234 6.6258 66.3792C5.47484 63.7958 4.89936 61.1515 4.89936 58.4465C4.93047 54.6777 6.00366 51.1977 8.11894 48.0064C9.48765 45.9396 11.9296 44.1312 15.4446 42.5812C17.9954 41.4566 21.1995 40.8943 25.0567 40.8943C28.9451 40.8943 32.3824 41.563 35.3687 42.9003V39.709C32.0403 39.5266 29.0073 39.0403 26.2699 38.2501C23.2525 37.3991 21.0439 36.0162 19.6441 34.1014C18.5554 32.6121 18.011 30.8037 18.011 28.6762C18.011 25.5457 19.2086 22.9166 21.6038 20.7891C23.4081 19.1478 25.8344 18.3272 28.8829 18.3272H37.8884C38.2928 32.8249 38.495 42.6116 38.495 47.6873C38.495 49.5109 38.4328 52.5806 38.3083 56.8965C38.2461 59.4495 38.215 61.5466 38.215 63.1879C38.215 67.8685 38.5261 71.4245 39.1482 73.856C39.677 76.0139 40.7347 77.7311 42.3211 79.0077C43.8454 80.2234 45.6807 80.968 47.8271 81.2416V81.7431C46.5828 81.8039 45.5563 82.2294 44.7475 83.0196C43.5343 84.1745 42.9277 85.7398 42.9277 87.7154C42.9277 89.539 43.4254 91.3778 44.4209 93.2318C45.4474 95.0858 46.3651 96.803 47.1738 98.3835C48.0448 100.116 48.6981 101.666 49.1336 103.034C49.4135 103.915 49.5535 104.766 49.5535 105.587C49.5535 106.286 49.538 106.757 49.5069 107ZM0 54.2066C0.031107 48.1887 1.3065 41.8821 3.82617 35.2867C6.47027 28.4178 10.3275 22.096 15.398 16.3213C19.0375 12.1878 23.828 8.57094 29.7694 5.47081L30.0027 5.83553L25.7566 14.7712L26.8298 15.3183C28.1363 13.2819 29.4895 11.6863 30.8893 10.5313C32.7868 8.95086 35.1821 7.8263 38.075 7.15765C39.9726 6.73214 43.721 6.51939 49.3202 6.51939C49.4758 10.5313 49.5535 13.8442 49.5535 16.458C49.5224 25.6976 49.3513 34.998 49.0403 44.3592C48.8225 50.5898 48.4959 56.091 48.0604 60.8628C47.656 65.5738 47.1272 69.4185 46.4739 72.3971H55.5261C54.8728 69.4185 54.344 65.5738 53.9396 60.8628C53.5041 56.091 53.1775 50.5898 52.9597 44.3592C52.6487 34.998 52.4776 25.6976 52.4465 16.458C52.4465 13.8442 52.5242 10.5313 52.6798 6.51939C58.279 6.51939 62.0275 6.73214 63.925 7.15765C66.8179 7.8263 69.2132 8.95086 71.1107 10.5313C72.5105 11.6863 73.8637 13.2819 75.1702 15.3183L76.2434 14.7712L71.9973 5.83553L72.2306 5.47081C77.9854 8.38858 82.7758 12.0054 86.602 16.3213C91.5791 21.9136 95.4364 28.2355 98.1738 35.2867C100.694 41.7605 101.969 48.0672 102 54.2066H101.487C100.958 51.7448 99.7136 49.3285 97.7539 46.9578C95.8564 44.6783 93.2745 42.9155 90.0082 41.6694C87.022 40.5144 83.4135 39.9217 79.183 39.8913C77.0677 39.8913 75.6523 39.9217 74.9369 39.9825V39.481C76.904 39.1975 78.8406 38.7397 80.7228 38.1133C83.0558 37.3231 84.8134 36.2897 85.9954 35.0132C87.613 33.2504 88.4373 31.138 88.4684 28.6762C88.4373 24.8466 86.3376 21.7465 82.1693 19.3758C79.9918 18.1601 76.9899 17.5522 73.1638 17.5522H59.5389C59.9744 21.1082 60.5965 27.0197 61.4053 35.2867C62.0275 41.8213 62.3385 47.3377 62.3385 51.836C62.3385 57.2764 62.1363 61.8506 61.7319 65.5586C61.3898 68.5675 60.8298 70.9686 60.0522 72.7618C58.9634 75.2237 57.6258 77.1385 56.0393 78.5062C54.5462 79.7827 52.8664 80.421 51 80.421C49.1647 80.421 47.4849 79.7827 45.9607 78.5062C44.3742 77.1689 43.0366 75.2541 41.9478 72.7618C41.1702 70.9686 40.6102 68.5675 40.2681 65.5586C39.8637 61.8506 39.6615 57.2764 39.6615 51.836C39.6615 47.3377 39.9726 41.8213 40.5947 35.2867C41.3102 27.81 41.9323 21.8984 42.4611 17.5522H28.8362C25.0101 17.5522 22.0082 18.1601 19.8307 19.3758C15.6313 21.7161 13.5316 24.8162 13.5316 28.6762C13.5316 31.1077 14.3559 33.22 16.0046 35.0132C17.1866 36.2897 18.9442 37.3231 21.2772 38.1133C23.0503 38.7212 24.979 39.1771 27.0631 39.481V39.9825C26.3477 39.9217 24.9323 39.8913 22.817 39.8913C18.5865 39.9217 14.978 40.5144 11.9918 41.6694C8.72553 42.9155 6.14364 44.6783 4.24611 46.9578C2.28637 49.3285 1.04209 51.7448 0.513266 54.2066H0ZM70.0375 4.42224L69.8042 4.83255H32.1958L31.9625 4.42224C38.2772 1.47408 44.6231 0 51 0C57.2525 0 63.5984 1.47408 70.0375 4.42224Z" fill="#E5E5E5"/>
</svg>
