<svg width="23" height="23" viewBox="0 0 23 23" fill="none" xmlns="http://www.w3.org/2000/svg">
<path fill-rule="evenodd" clip-rule="evenodd" d="M0.368893 20.8501C-0.122913 21.3419 -0.122913 22.1393 0.368893 22.6311C0.860699 23.1229 1.65807 23.1229 2.14988 22.6311L11.5 13.281L20.8501 22.6311C21.3419 23.123 22.1393 23.123 22.6311 22.6311C23.1229 22.1394 23.1229 21.342 22.6311 20.8502L13.2809 11.5L22.6311 2.14983C23.123 1.65803 23.123 0.860655 22.6311 0.368854C22.1393 -0.122951 21.342 -0.122951 20.8502 0.368854L11.5 9.71904L2.14984 0.368926C1.65803 -0.122879 0.860661 -0.122879 0.368855 0.368926C-0.122952 0.860727 -0.122952 1.6581 0.368855 2.14991L9.71898 11.5L0.368893 20.8501Z" fill="#EAD89A"/>
</svg>
