<?xml version="1.0" encoding="UTF-8"?>
<!DOCTYPE svg PUBLIC "-//W3C//DTD SVG 1.1//EN" "http://www.w3.org/Graphics/SVG/1.1/DTD/svg11.dtd">
<!-- Creator: CorelDRAW 2018 -->
<svg xmlns="http://www.w3.org/2000/svg" xml:space="preserve" width="26.4mm" height="29.2mm" version="1.1" style="shape-rendering:geometricPrecision; text-rendering:geometricPrecision; image-rendering:optimizeQuality; fill-rule:evenodd; clip-rule:evenodd"
viewBox="0 0 2640000 2920000"
 xmlns:xlink="http://www.w3.org/1999/xlink">
 <defs>
  <style type="text/css">
   <![CDATA[
    .fil0 {fill:black}
   ]]>
  </style>
 </defs>
 <g id="Слой_x0020_1">
  <metadata id="CorelCorpID_0Corel-Layer"/>
  <path class="fil0" d="M1497990 2252440c-12270,-12510 -24940,-21690 -38020,-27530 38420,-11670 71540,-29610 99340,-53790 44150,-38370 73580,-88830 88300,-151380 16350,-69230 24530,-168480 24530,-297760 0,-56720 -820,-114270 -2460,-172650 -3270,-116770 -4900,-201010 -4900,-252720 0,-55880 5310,-318190 15940,-786930l213400 0c72760,0 131630,20850 176600,62560 58050,55050 86670,122600 85850,202670 -820,55050 -13490,100920 -38020,137620 -31890,46710 -85850,82570 -161880,107590 -55880,18730 -132730,31660 -230570,38790l-17170 1250 0 133860 25750 -11260c81760,-35860 167610,-53790 257550,-53790 96480,0 177010,15010 241610,45040 89930,41700 151250,88820 183960,141370 55590,90080 82980,182240 82170,276490 -820,71730 -15540,141790 -44150,210180 -13090,30860 -30850,59220 -53290,85070 -26610,30860 -60360,57550 -101240,80070 -30250,16680 -61730,30070 -94440,40170 -49050,14920 -101790,22380 -158200,22380 -53970,0 -102610,-5830 -145950,-17510 -43330,-10840 -90340,-29190 -141040,-55050l-7350 -3750 -41700 12510 -22080 142620 20850 0c157800,0 271450,-1250 340950,-3750 161880,-5840 294330,-38780 397350,-98840 60510,-35030 108340,-78400 143490,-130110 -52320,226860 -161060,430370 -326220,610530 -242830,265230 -538400,404930 -886700,419110l0 -20020c0,-20850 3270,-42540 9810,-65050 9810,-32530 26160,-72980 49060,-121360 29430,-61720 53140,-109680 71130,-143870 26980,-51710 40470,-105090 40470,-160140 0,-59220 -17580,-106760 -52730,-142620zm-229340 651810c-348310,-14180 -643460,-153470 -885480,-417860 -164340,-179320 -273080,-382830 -326220,-610530 35150,51710 82580,95080 142260,130110 102200,60060 234660,93000 397360,98840 69500,2500 183140,3750 340940,3750l20850 0 -22070 -142620 -41700 -12510 -6130 3750c-28620,17520 -77270,35030 -145950,52550 -52320,13340 -99750,20010 -142260,20010 -94840,0 -179060,-20850 -252640,-62550 -75220,-42540 -126730,-97580 -154530,-165140 -28620,-69230 -42930,-139290 -42930,-210180 0,-99250 26990,-191420 80950,-276490 32700,-51710 94430,-98840 185190,-141370 64590,-30030 144710,-45040 240370,-45040 89940,0 175790,17930 257550,53790l25760 11260 0 -133860 -17170 -1250c-84220,-5840 -161070,-18770 -230570,-38790 -72770,-21680 -126320,-57550 -160660,-107590 -26160,-38370 -39250,-84240 -39250,-137620 0,-79230 29030,-146790 87080,-202670 43330,-41710 101790,-62560 175380,-62560l214620 0c9810,402850 14720,665160 14720,786930 -820,73400 -2460,157640 -4910,252720 -1630,55880 -2450,113430 -2450,172650 0,128440 8170,227700 24530,297760 14710,63380 44150,113840 88300,151380 27800,23350 61320,41280 100570,53790 -13900,6670 -26990,15850 -39250,27530 -34340,32520 -51920,80070 -52740,142620 820,51710 14310,105090 40480,160140 31880,66720 56000,114680 72350,143870 22900,47540 38840,87990 47830,121360 7360,27520 11040,49200 11040,65050 0,5010 -410,11260 -1220,18770zm-859720 -1942930c31070,36700 78490,67140 142260,91330 10630,4170 23710,7930 39250,11260 -107110,1670 -200320,18350 -279620,50040 -89120,35870 -159440,86330 -210950,151390 -31890,40860 -56820,82150 -74810,123850 9810,-138450 41700,-280660 95660,-426620 67040,-181820 167200,-353220 300470,-514190 85850,-104250 196230,-195580 331130,-273980l-101790 227690 57640 31280 8590 -15010c28620,-50050 62540,-92580 101790,-127610 48240,-42540 107110,-71730 176600,-87580 47430,-10840 136950,-16680 268590,-17520 4090,105090 6130,189750 6130,253970 0,236870 -4490,491680 -13490,764410 -4900,148460 -13490,299430 -25750,452890 -10630,135950 -24120,240630 -40470,314020l-4910 22520 278400 0 -4910 -22520c-14720,-66720 -28210,-171390 -40470,-314020 -11450,-134280 -19620,-284830 -24530,-451640 -8990,-306090 -13490,-561310 -13490,-765660 0,-76730 1630,-161390 4910,-253970 135720,840 225250,6680 268580,17520 71950,17520 131230,46710 177830,87580 36790,31690 70310,74230 100570,127610l8580 15010 57640 -31280 -101790 -228950c127550,73400 238330,165150 332360,275240 127550,150130 227700,321530 300470,514190 53960,143460 85850,285670 95660,426620 -18800,-43370 -44150,-84650 -76040,-123850 -53960,-65890 -124270,-116350 -210940,-151390 -78490,-31690 -171700,-48370 -279620,-50040 14710,-4170 27390,-8340 38020,-12510 64590,-25020 112420,-55050 143490,-90080 45780,-50870 69080,-113010 69900,-186410l0 0c0,-112590 -57640,-203090 -172920,-271480 -59690,-35030 -140220,-52550 -241610,-52550l-370370 0c17170,149300 33930,318190 50280,506690 15530,179320 23300,330280 23300,452890 0,151800 -4900,276490 -14720,374070 -8170,80070 -22480,144290 -42920,192670 -28620,67560 -61320,118020 -98110,151380 -35160,31690 -63720,45650 -107050,45650 -28580,1240 -56780,-2260 -90760,-18790 -33590,-16340 -46860,-27610 -68390,-52410 -32770,-38090 -40820,-58270 -68610,-125830 -19630,-48380 -33530,-112600 -41700,-192670 -10630,-105090 -15950,-229780 -15950,-374070 0,-122610 8590,-279820 25760,-471660 17170,-191830 25750,-349050 49060,-487920l-371610 0c-101380,0 -181920,17520 -241600,52550 -114470,68390 -171700,158890 -171700,271480 0,70900 22890,133030 68680,186410zm484430 -859490c75220,-34190 145540,-58380 210950,-72560 71950,-15850 142260,-23770 210940,-23770 93210,0 183140,12180 269810,36550 62140,17340 118550,37260 169250,59780l-860950 0z"/>
 </g>
</svg>
