<svg width="35" height="35" viewBox="0 0 35 35" fill="none" xmlns="http://www.w3.org/2000/svg">
<path d="M14.8901 0.143135C4.78416 1.52703 -1.96384 11.4506 0.514509 21.2775C1.86621 26.6738 5.86776 31.158 11.1353 33.1856C21.3269 37.1227 32.6987 30.2568 34.1575 19.2927C35.1767 11.6116 30.639 4.05894 23.2365 1.11964C20.769 0.143135 17.5935 -0.232063 14.8901 0.143135ZM17.5508 1.05524C18.0229 1.49519 18.5378 2.80384 18.9669 4.59549C19.2028 5.62554 19.6105 7.95339 19.557 8.00694C19.4712 8.10354 16.4672 8.15709 15.6198 8.09269L14.6972 8.00694L14.7508 7.62089C14.9009 6.54814 15.448 3.99489 15.7056 3.19024C16.1777 1.69889 16.7034 0.840683 17.143 0.840683C17.2396 0.840683 17.422 0.937286 17.5508 1.05524ZM15.609 1.18404C14.8474 2.87909 14.4288 4.32739 14.0536 6.61254C13.9356 7.27754 13.8282 7.84629 13.796 7.86764C13.7211 7.95339 11.5539 7.52429 10.4059 7.20264L9.41886 6.92369L9.81575 6.21564C11.1244 3.85559 12.9056 2.08529 14.7508 1.32368C15.448 1.03354 15.6947 0.990837 15.609 1.18404ZM19.4922 1.31249C20.8656 1.87039 22.2495 3.00754 23.365 4.49889C23.9873 5.33574 24.7597 6.63389 24.7597 6.83759C24.7597 7.01994 22.8501 7.52429 20.8656 7.86764C20.3935 7.94289 20.447 8.03914 20.2003 6.47289C20.1037 5.81839 19.8783 4.74564 19.7068 4.06979C19.4387 3.03974 19.2668 2.55709 18.6771 1.18404C18.5913 0.990837 18.7845 1.02304 19.4922 1.31249ZM12.1653 1.96699C11.1353 2.81434 9.81575 4.49889 9.04331 5.98989C8.87181 6.31189 8.72131 6.60134 8.69995 6.62269C8.63556 6.72979 5.85691 5.45334 5.89996 5.33539C5.95351 5.19608 7.40181 4.02674 8.05631 3.59764C9.04331 2.94314 10.4272 2.24594 11.4891 1.84904C12.0362 1.65584 12.5405 1.49519 12.6154 1.48434C12.7015 1.48434 12.4978 1.69889 12.1653 1.96699ZM22.6895 1.81684C23.8158 2.21374 25.1783 2.90044 26.2297 3.59764C27.0021 4.11249 28.386 5.23914 28.3969 5.35709C28.4077 5.47504 25.6504 6.70879 25.5752 6.62304C25.5539 6.60169 25.4037 6.31189 25.2427 5.99024C24.5347 4.59549 23.1616 2.82554 22.1207 1.96733C21.7882 1.69924 21.5737 1.48468 21.6272 1.48468C21.6916 1.48433 22.1638 1.63449 22.6895 1.81684ZM6.01791 6.44069C6.38261 6.62304 7.04796 6.92334 7.49841 7.10569L8.31391 7.43819L7.90616 8.51094C7.15506 10.4741 6.62936 13.0812 6.45786 15.6128L6.38261 16.7177H3.59346H0.814809L0.890059 15.8809C1.14766 13.0056 2.07026 10.3558 3.60431 8.04929C4.19441 7.16939 5.09566 6.09664 5.24581 6.09664C5.29936 6.09734 5.65321 6.24749 6.01791 6.44069ZM29.6625 6.68744C31.7331 9.10139 33.0739 12.3949 33.4064 15.9351L33.4817 16.7184H30.6925H27.9034L27.7854 15.1844C27.5814 12.6525 26.9699 9.90604 26.23 8.08254L25.962 7.44974L26.8954 7.06369C27.3994 6.84914 28.0647 6.54884 28.3545 6.38784C28.6548 6.23769 28.9446 6.10889 29.0195 6.09804C29.0832 6.09734 29.373 6.36544 29.6625 6.68744ZM10.6526 8.14624C11.3071 8.30724 12.2297 8.52179 12.7232 8.60754C13.2167 8.68279 13.6458 8.77904 13.678 8.81124C13.6994 8.84344 13.678 9.39049 13.6136 10.0341C13.4635 11.4716 13.2811 14.6471 13.2811 15.8273V16.7181H10.2666H7.24116L7.31606 15.5596C7.46621 13.3066 7.97056 10.689 8.61421 8.88684C9.01111 7.78189 9.07551 7.67444 9.29006 7.76054C9.38666 7.80324 10.009 7.97474 10.6526 8.14624ZM25.586 8.68279C26.2727 10.4744 26.7984 13.167 26.9699 15.6131L27.0452 16.7181H24.0415H21.0378L20.9626 14.6475C20.9199 13.5212 20.8233 11.7509 20.7267 10.7208C20.5552 8.70379 20.5657 8.67194 21.1022 8.67194C21.4347 8.67194 23.6663 8.16759 24.4279 7.92084C24.7604 7.81339 25.0824 7.73849 25.136 7.74934C25.1996 7.76019 25.3928 8.17844 25.586 8.68279ZM19.7176 8.99394C19.7176 9.02614 19.7929 9.81994 19.8786 10.7642C19.9539 11.7082 20.061 13.4354 20.104 14.5943L20.1793 16.7184H17.143H14.1071L14.1824 14.6156C14.2254 13.4571 14.322 11.7299 14.4078 10.7751C14.4935 9.83114 14.5688 9.02649 14.5688 8.99429C14.5688 8.96209 15.7273 8.94074 17.1434 8.94074C18.5591 8.94039 19.7176 8.96174 19.7176 8.99394ZM6.45786 18.6707C6.62936 21.2348 7.18726 23.9382 7.94886 25.9014L8.31356 26.8562L7.82006 27.0494C7.55196 27.1568 6.85441 27.468 6.26466 27.7466L5.20276 28.2509L4.68791 27.6717C2.62816 25.3757 1.20121 21.8998 0.890059 18.4026L0.814809 17.5766H3.59346H6.38261L6.45786 18.6707ZM13.2808 18.5097C13.2808 19.7004 13.4523 22.7472 13.6133 24.2599C13.6777 24.9035 13.7099 25.4401 13.6882 25.4614C13.6668 25.4828 13.0232 25.6333 12.2612 25.7834C11.4888 25.9227 10.4804 26.1698 10.0191 26.3091C9.54696 26.4593 9.12871 26.5559 9.08566 26.5237C8.9355 26.4379 8.32406 24.6032 8.01291 23.3159C7.64821 21.7819 7.42281 20.3014 7.31571 18.7243L7.24081 17.5763H10.2662H13.2808V18.5097ZM20.104 19.636C20.0396 21.5456 19.9217 23.3051 19.7607 24.7639L19.6963 25.354H17.1322C15.7269 25.354 14.5681 25.3326 14.5681 25.3004C14.5681 25.2682 14.4928 24.4636 14.4071 23.5196C14.3213 22.5648 14.2247 20.8376 14.1817 19.6791L14.1064 17.5763H17.143H20.1789L20.104 19.636ZM26.9699 18.6707C26.852 20.398 26.6052 22.0069 26.2083 23.5305C25.865 24.8713 25.3715 26.3413 25.2108 26.5023C25.1678 26.5454 24.7282 26.4593 24.2239 26.3091C23.7195 26.159 22.7111 25.9227 21.9709 25.7726C21.2306 25.6224 20.6192 25.4828 20.5979 25.4723C20.587 25.4509 20.6406 24.5927 20.7267 23.5735C20.8233 22.5435 20.9199 20.7735 20.9626 19.6364L21.0378 17.5766H24.0415H27.0452L26.9699 18.6707ZM33.4068 18.3487C33.2031 20.5051 32.6021 22.7258 31.7548 24.3992C31.2077 25.4933 30.1885 27.0277 29.5662 27.714L29.0836 28.2506L28.0217 27.7462C27.4316 27.4673 26.7344 27.1561 26.4555 27.049L25.962 26.8558L26.23 26.2122C26.9703 24.3883 27.5817 21.6527 27.7854 19.0995L27.9034 17.5759H30.6925H33.4817L33.4068 18.3487ZM19.0418 26.223L19.5888 26.2979L19.5353 26.6843C19.2563 28.701 18.5374 31.5227 18.087 32.4345C17.8189 32.9707 17.3681 33.4537 17.143 33.4537C16.7031 33.4537 16.1774 32.5955 15.7056 31.1041C15.448 30.2995 14.9009 27.7571 14.7508 26.6735L14.6864 26.2766L15.1368 26.2335C15.9306 26.1695 18.4625 26.1586 19.0418 26.223ZM13.8709 26.6094C13.8922 26.7487 13.9997 27.3388 14.0963 27.9289C14.343 29.4738 14.8474 31.3404 15.2656 32.3169C15.4693 32.7887 15.609 33.1964 15.5876 33.2181C15.5019 33.3039 14.5257 32.907 13.7746 32.467C12.3907 31.6519 10.835 29.9351 9.80525 28.0794L9.4192 27.3714L10.4598 27.0711C11.3502 26.8243 13.2276 26.4166 13.6784 26.3844C13.7529 26.3732 13.8387 26.4806 13.8709 26.6094ZM22.2817 26.706C23.6229 26.9741 24.76 27.3175 24.76 27.4571C24.76 27.6608 23.9876 28.959 23.3653 29.7958C22.2495 31.2868 20.8656 32.4243 19.4926 32.9819C18.5595 33.3683 18.5269 33.3361 18.9238 32.5097C19.3851 31.5549 19.8573 29.8494 20.1467 28.0791C20.2755 27.2853 20.404 26.5772 20.4257 26.502C20.4687 26.3518 20.5867 26.3627 22.2817 26.706ZM9.02196 28.2614C9.69781 29.6345 11.1139 31.4692 12.1653 32.3274C12.4978 32.5955 12.7124 32.81 12.6588 32.81C12.5944 32.81 12.1223 32.6599 11.5966 32.4775C10.4703 32.0806 9.10771 31.3939 8.05631 30.6967C7.21946 30.1388 5.88911 29.0552 5.88911 28.9159C5.87826 28.8729 6.10366 28.7336 6.39346 28.6048C8.09936 27.8537 8.51761 27.6717 8.61421 27.6717C8.67861 27.6605 8.86096 27.9289 9.02196 28.2614ZM26.4334 27.972C27.6349 28.4763 28.4074 28.8515 28.3965 28.9268C28.3857 29.0664 26.9909 30.1819 26.1222 30.7506C25.6396 31.0726 24.8776 31.5126 24.438 31.7376C23.6869 32.1132 21.874 32.8104 21.6381 32.8104C21.5737 32.8104 21.8312 32.5528 22.2068 32.2311C23.2904 31.3194 24.7922 29.345 25.3393 28.1116C25.4467 27.8649 25.5752 27.6612 25.6182 27.6612C25.6609 27.6605 26.0256 27.8001 26.4334 27.972Z" fill="#FFFDE9"/>
</svg>
